<svg width="70" height="70" viewBox="0 0 70 70" fill="none" xmlns="http://www.w3.org/2000/svg">
<path d="M8.75 32.0833H11.7993M11.7993 32.0833H58.2007M11.7993 32.0833C11.8318 31.9332 11.8702 31.7844 11.9145 31.6374C12.0202 31.2866 12.1696 30.9492 12.4699 30.2735L16.9798 20.1261C17.8715 18.1199 18.3181 17.1162 19.0228 16.3806C19.6457 15.7304 20.4098 15.2338 21.2569 14.9286C22.2153 14.5833 23.314 14.5833 25.5094 14.5833H44.4896C46.6851 14.5833 47.7848 14.5833 48.7432 14.9286C49.5903 15.2338 50.3532 15.7304 50.9762 16.3806C51.6804 17.1157 52.1261 18.1186 53.0166 20.1221L57.5447 30.3104C57.8342 30.9616 57.9815 31.293 58.0853 31.6374C58.1296 31.7844 58.1681 31.9332 58.2007 32.0833M11.7993 32.0833C11.763 32.2514 11.734 32.4212 11.7125 32.5918C11.6667 32.9553 11.6667 33.3249 11.6667 34.0643V49.5833M58.2007 32.0833H61.25M58.2007 32.0833C58.2372 32.2514 58.2662 32.4212 58.2878 32.5918C58.3333 32.9531 58.3333 33.3205 58.3333 34.051V49.5837M58.3333 49.5837L46.6667 49.5836M58.3333 49.5837V52.4997C58.3333 55.7213 55.7217 58.3333 52.5 58.3333C49.2783 58.3333 46.6667 55.7217 46.6667 52.5V49.5836M46.6667 49.5836L23.3333 49.5833M23.3333 49.5833H11.6667M23.3333 49.5833V52.5C23.3333 55.7217 20.7217 58.3333 17.5 58.3333C14.2783 58.3333 11.6667 55.7217 11.6667 52.5V49.5833" stroke="white" stroke-width="2" stroke-linecap="round" stroke-linejoin="round"/>
</svg>
